<svg width="43" height="40" viewBox="0 0 43 40" fill="none" xmlns="http://www.w3.org/2000/svg">
<g clip-path="url(#clip0_81_3)">
<path d="M8.95834 31.6667H25.0833V25C25.0833 24.5278 25.2553 24.1317 25.5993 23.8117C25.9433 23.4917 26.3686 23.3322 26.875 23.3333H34.0417V8.33334H8.95834V31.6667ZM8.95834 35C7.97292 35 7.12904 34.6733 6.42671 34.02C5.72438 33.3667 5.37381 32.5822 5.375 31.6667V8.33334C5.375 7.41667 5.72617 6.63167 6.4285 5.97834C7.13084 5.325 7.97411 4.99889 8.95834 5H34.0417C35.0271 5 35.871 5.32667 36.5733 5.98C37.2756 6.63334 37.6262 7.41778 37.625 8.33334V25L26.875 35H8.95834ZM14.3333 23.3333C13.8257 23.3333 13.3999 23.1733 13.0559 22.8533C12.7119 22.5333 12.5405 22.1378 12.5417 21.6667C12.5417 21.1944 12.7137 20.7983 13.0577 20.4783C13.4017 20.1583 13.8269 19.9989 14.3333 20H19.7083C20.216 20 20.6418 20.16 20.9858 20.48C21.3298 20.8 21.5012 21.1956 21.5 21.6667C21.5 22.1389 21.328 22.535 20.984 22.855C20.64 23.175 20.2148 23.3344 19.7083 23.3333H14.3333ZM14.3333 16.6667C13.8257 16.6667 13.3999 16.5067 13.0559 16.1867C12.7119 15.8667 12.5405 15.4711 12.5417 15C12.5417 14.5278 12.7137 14.1317 13.0577 13.8117C13.4017 13.4917 13.8269 13.3322 14.3333 13.3333H28.6667C29.1743 13.3333 29.6001 13.4933 29.9441 13.8133C30.2881 14.1333 30.4595 14.5289 30.4583 15C30.4583 15.4722 30.2863 15.8683 29.9423 16.1883C29.5983 16.5083 29.1731 16.6678 28.6667 16.6667H14.3333Z" fill="#939393"/>
<rect x="21" y="18" width="33" height="35" fill="white"/>
</g>
<defs>
<clipPath id="clip0_81_3">
<rect width="43" height="40" fill="white"/>
</clipPath>
</defs>
</svg>
