<svg width="135" height="28" viewBox="0 0 135 28" fill="none" xmlns="http://www.w3.org/2000/svg">
<path d="M0.784091 27V0.818181H8.85085C10.5128 0.818181 11.9361 1.15909 13.1207 1.84091C14.3139 2.52273 15.2301 3.45597 15.8693 4.64062C16.5085 5.82528 16.8281 7.17614 16.8281 8.69318C16.8281 10.1932 16.5085 11.5355 15.8693 12.7202C15.2301 13.9048 14.3139 14.8423 13.1207 15.5327C11.9361 16.2145 10.517 16.5554 8.86364 16.5554H1.90909V15.0724H8.82528C10.1719 15.0724 11.3224 14.7997 12.277 14.2543C13.2315 13.7003 13.9645 12.946 14.4759 11.9915C14.9872 11.0284 15.2429 9.92898 15.2429 8.69318C15.2429 7.44886 14.9872 6.34517 14.4759 5.3821C13.9645 4.41903 13.2273 3.66477 12.2642 3.11932C11.3097 2.57386 10.1591 2.30114 8.8125 2.30114H2.3821V27H0.784091ZM23.9776 0.818181V27H22.418V0.818181H23.9776ZM35.6367 27.4219C34.5032 27.4219 33.4634 27.196 32.5174 26.7443C31.5799 26.2926 30.8256 25.6321 30.2546 24.7628C29.6921 23.8935 29.4109 22.8366 29.4109 21.5923C29.4109 20.7741 29.5558 20.054 29.8455 19.4318C30.1353 18.8097 30.5827 18.2727 31.1879 17.821C31.793 17.3693 32.5685 16.9986 33.5146 16.7088C34.4606 16.4105 35.5898 16.1804 36.9023 16.0185C37.8995 15.8991 38.7901 15.7841 39.5742 15.6733C40.3583 15.554 40.9719 15.3707 41.4151 15.1236C41.8668 14.8764 42.0927 14.5014 42.0927 13.9986V13.1804C42.0927 11.7486 41.641 10.6108 40.7376 9.76705C39.8342 8.9233 38.5898 8.50142 37.0046 8.50142C35.5984 8.50142 34.4137 8.8125 33.4506 9.43466C32.4961 10.0483 31.8271 10.8409 31.4435 11.8125L29.9734 11.2628C30.3484 10.3253 30.8896 9.54545 31.5969 8.9233C32.3129 8.30114 33.131 7.83665 34.0515 7.52983C34.9805 7.22301 35.9521 7.0696 36.9663 7.0696C37.8441 7.0696 38.6793 7.19318 39.4719 7.44034C40.2731 7.6875 40.9847 8.0625 41.6069 8.56534C42.2376 9.06818 42.7362 9.71165 43.1026 10.4957C43.4691 11.2713 43.6523 12.2003 43.6523 13.2827V27H42.0927V23.4588H41.9776C41.6367 24.1918 41.168 24.8608 40.5714 25.4659C39.9833 26.0625 39.2717 26.5398 38.4364 26.8977C37.6097 27.2472 36.6765 27.4219 35.6367 27.4219ZM35.7901 25.9773C37.0174 25.9773 38.104 25.679 39.0501 25.0824C40.0046 24.4773 40.7504 23.6506 41.2873 22.6023C41.8242 21.554 42.0927 20.3651 42.0927 19.0355V16.1463C41.8967 16.3168 41.6112 16.4702 41.2362 16.6065C40.8697 16.7344 40.4521 16.8494 39.9833 16.9517C39.5231 17.0455 39.0373 17.1307 38.5259 17.2074C38.0231 17.2756 37.533 17.3395 37.0558 17.3991C35.6239 17.5696 34.4563 17.8338 33.5529 18.1918C32.658 18.5412 32.0018 19.0014 31.5842 19.5724C31.1751 20.1435 30.9705 20.8338 30.9705 21.6435C30.9705 22.9815 31.4308 24.0384 32.3512 24.8139C33.2717 25.5895 34.418 25.9773 35.7901 25.9773ZM51.7511 14.267V27H50.1914V7.36364H51.7127V10.4702H51.8661C52.3263 9.45596 53.0636 8.64204 54.0778 8.02841C55.092 7.41477 56.2979 7.10795 57.6957 7.10795C59.0167 7.10795 60.1758 7.3892 61.1729 7.9517C62.1786 8.5142 62.9627 9.31534 63.5252 10.3551C64.0962 11.3864 64.3817 12.6179 64.3817 14.0497V27H62.8221V14.1136C62.8221 12.4432 62.3235 11.1009 61.3264 10.0866C60.3377 9.06392 59.0295 8.55256 57.4016 8.55256C56.3107 8.55256 55.3391 8.79119 54.4869 9.26847C53.6346 9.74574 52.9656 10.4148 52.4798 11.2756C51.994 12.1278 51.7511 13.125 51.7511 14.267ZM111.45 9C111.254 8.11364 110.921 7.2571 110.452 6.4304C109.984 5.59517 109.383 4.84517 108.65 4.1804C107.925 3.5071 107.073 2.97443 106.093 2.58239C105.121 2.19034 104.031 1.99432 102.82 1.99432C100.971 1.99432 99.3303 2.48011 97.8984 3.4517C96.4751 4.41477 95.3587 5.79119 94.549 7.58097C93.7479 9.36222 93.3473 11.4716 93.3473 13.9091C93.3473 16.321 93.7479 18.4219 94.549 20.2116C95.3501 22.0014 96.4709 23.3864 97.9112 24.3665C99.3601 25.3381 101.043 25.8239 102.961 25.8239C104.674 25.8239 106.191 25.4276 107.512 24.6349C108.842 23.8423 109.877 22.7088 110.619 21.2344C111.36 19.7599 111.722 17.9957 111.705 15.9418L112.268 16.2102H103.37V14.7273H113.265V16.2102C113.265 18.5199 112.822 20.5099 111.935 22.1804C111.058 23.8423 109.839 25.1207 108.279 26.0156C106.728 26.9105 104.955 27.358 102.961 27.358C100.711 27.358 98.7464 26.7997 97.0675 25.6832C95.3885 24.5668 94.0845 23.0028 93.1555 20.9915C92.2351 18.9716 91.7749 16.6108 91.7749 13.9091C91.7749 11.8807 92.0391 10.0398 92.5675 8.38636C93.0959 6.73295 93.8501 5.31818 94.8303 4.14205C95.8104 2.95739 96.978 2.04971 98.3331 1.41903C99.6882 0.779828 101.184 0.460226 102.82 0.460226C104.303 0.460226 105.637 0.707386 106.822 1.2017C108.006 1.6875 109.029 2.34375 109.89 3.17045C110.759 3.98864 111.462 4.90483 111.999 5.91903C112.536 6.92472 112.898 7.9517 113.086 9H111.45ZM126.503 27.4091C124.884 27.4091 123.443 26.9744 122.182 26.1051C120.92 25.2273 119.928 24.0213 119.203 22.4872C118.479 20.9531 118.116 19.206 118.116 17.2457C118.116 15.277 118.479 13.5298 119.203 12.0043C119.928 10.4702 120.92 9.2642 122.182 8.38636C123.443 7.50852 124.884 7.0696 126.503 7.0696C128.122 7.0696 129.563 7.50852 130.824 8.38636C132.085 9.2642 133.078 10.4702 133.803 12.0043C134.527 13.5384 134.889 15.2855 134.889 17.2457C134.889 19.206 134.527 20.9531 133.803 22.4872C133.078 24.0213 132.085 25.2273 130.824 26.1051C129.563 26.9744 128.122 27.4091 126.503 27.4091ZM126.503 25.9645C127.875 25.9645 129.072 25.5767 130.095 24.8011C131.126 24.0256 131.923 22.9773 132.486 21.6562C133.057 20.3352 133.342 18.8651 133.342 17.2457C133.342 15.6264 133.057 14.1605 132.486 12.848C131.915 11.527 131.118 10.4787 130.095 9.70312C129.072 8.91903 127.875 8.52699 126.503 8.52699C125.131 8.52699 123.933 8.91903 122.911 9.70312C121.888 10.4787 121.091 11.527 120.52 12.848C119.949 14.1605 119.663 15.6264 119.663 17.2457C119.663 18.8651 119.945 20.3352 120.507 21.6562C121.078 22.9773 121.875 24.0256 122.898 24.8011C123.929 25.5767 125.131 25.9645 126.503 25.9645Z" fill="black"/>
<path d="M77.4599 27.358C75.9684 27.358 74.6431 27.0469 73.484 26.4247C72.3335 25.8026 71.4258 24.9631 70.761 23.9062C70.1048 22.8409 69.7766 21.6435 69.7766 20.3139C69.7766 19.4276 69.9513 18.6179 70.3008 17.8849C70.6502 17.1435 71.1786 16.4148 71.886 15.6989C72.6019 14.9744 73.5053 14.2074 74.5962 13.3977L78.4187 10.5469C79.4925 9.74574 80.2766 8.99574 80.771 8.29688C81.2738 7.58949 81.5252 6.77983 81.5252 5.8679C81.5252 4.77699 81.1502 3.84375 80.4002 3.06818C79.6587 2.29261 78.7127 1.90483 77.5621 1.90483C76.7781 1.90483 76.0579 2.10938 75.4016 2.51847C74.7539 2.91903 74.234 3.44318 73.842 4.09091C73.4585 4.73864 73.2667 5.43324 73.2667 6.17472C73.2667 6.75426 73.4031 7.32955 73.6758 7.90057C73.957 8.46307 74.3533 9.08523 74.8647 9.76705C75.3846 10.4403 76.0067 11.2244 76.7312 12.1193L88.646 27H86.7539L75.8107 13.3594C74.967 12.3196 74.2383 11.4077 73.6246 10.6236C73.011 9.83949 72.538 9.09375 72.2056 8.38636C71.8732 7.67898 71.707 6.93324 71.707 6.14915C71.707 5.10085 71.9627 4.15057 72.4741 3.2983C72.994 2.4375 73.6928 1.75568 74.5707 1.25284C75.4485 0.75 76.4371 0.49858 77.5366 0.49858C78.6275 0.49858 79.5906 0.737216 80.4258 1.21449C81.261 1.68324 81.913 2.3267 82.3817 3.14489C82.8505 3.95455 83.0849 4.86222 83.0849 5.8679C83.0849 6.98437 82.7866 7.99432 82.19 8.89773C81.6019 9.80114 80.6857 10.7344 79.4414 11.6974L75.146 14.8935C73.7141 15.9844 72.7212 16.956 72.1673 17.8082C71.6218 18.6605 71.3491 19.4957 71.3491 20.3139C71.3491 21.3366 71.6133 22.2699 72.1417 23.1136C72.6701 23.9574 73.3903 24.6349 74.3022 25.1463C75.2227 25.6577 76.2667 25.9176 77.4343 25.9261C78.6104 25.9091 79.6971 25.679 80.6942 25.2358C81.6914 24.7926 82.5692 24.1747 83.3278 23.3821C84.0948 22.581 84.717 21.6307 85.1942 20.5312C85.68 19.4233 85.9954 18.1918 86.1403 16.8366L87.6616 16.9134C87.5763 17.9787 87.3888 18.9375 87.0991 19.7898C86.8093 20.6335 86.4727 21.3793 86.0891 22.027C85.7141 22.6747 85.3519 23.2244 85.0025 23.6761C84.9002 23.8125 84.8022 23.9446 84.7085 24.0724C84.6147 24.2003 84.5124 24.3239 84.4016 24.4432C83.5408 25.3722 82.484 26.0923 81.2312 26.6037C79.9869 27.1065 78.7298 27.358 77.4599 27.358Z" fill="#999999"/>
</svg>
